<?xml version="1.0" encoding="UTF-8"?>
<!DOCTYPE svg PUBLIC "-//W3C//DTD SVG 1.1//EN" "http://www.w3.org/Graphics/SVG/1.1/DTD/svg11.dtd">
<!-- Creator: CorelDRAW X8 -->
<svg xmlns="http://www.w3.org/2000/svg" xml:space="preserve" width="5.5561mm" height="5.8316mm" version="1.1" style="shape-rendering:geometricPrecision; text-rendering:geometricPrecision; image-rendering:optimizeQuality; fill-rule:evenodd; clip-rule:evenodd"
viewBox="0 0 79 83"
 xmlns:xlink="http://www.w3.org/1999/xlink"
 enable-background="new 0 0 21 22">
 <defs>
  <style type="text/css">
   <![CDATA[
    .fil0 {fill:#81B3D2}
   ]]>
  </style>
 </defs>
 <g id="Слой_x0020_1">
  <metadata id="CorelCorpID_0Corel-Layer"/>
  <g id="_2500943118208">
   <g id="calendar_1_">
    <path class="fil0" d="M72 8l-11 0 0 -5c0,-2 -1,-3 -2,-3 -1,0 -2,1 -2,3l0 5 -15 0 0 -5c0,-2 -1,-3 -3,-3 -1,0 -2,1 -2,3l0 5 -15 0 0 -5c0,-2 -1,-3 -2,-3 -2,0 -3,1 -3,3l0 5 -10 0c-4,0 -7,3 -7,7l0 61c0,3 3,7 7,7l65 0c4,0 7,-4 7,-7l0 -61c0,-4 -3,-7 -7,-7zm2 68c0,1 -1,1 -2,1l-65 0c-1,0 -2,0 -2,-1l0 -61c0,-1 1,-2 2,-2l10 0 0 5c0,1 1,3 3,3 1,0 2,-2 2,-3l0 -5 15 0 0 5c0,1 1,3 2,3 2,0 3,-2 3,-3l0 -5 15 0 0 5c0,1 1,3 2,3 1,0 2,-2 2,-3l0 -5 11 0c1,0 2,1 2,2l0 61 0 0z"/>
    <rect class="fil0" x="17" y="31" width="9.83034" height="7.73688"/>
    <rect class="fil0" x="17" y="44" width="9.83034" height="7.74113"/>
    <rect class="fil0" x="17" y="57" width="9.83034" height="7.73688"/>
    <rect class="fil0" x="34" y="57" width="9.83034" height="7.73688"/>
    <rect class="fil0" x="34" y="44" width="9.83034" height="7.74113"/>
    <rect class="fil0" x="34" y="31" width="9.83034" height="7.73688"/>
    <rect class="fil0" x="52" y="57" width="9.83034" height="7.73688"/>
    <rect class="fil0" x="52" y="44" width="9.83034" height="7.74113"/>
    <rect class="fil0" x="52" y="31" width="9.83034" height="7.73688"/>
   </g>
  </g>
 </g>
</svg>
